<svg width="128" height="128" viewBox="0 0 128 128" fill="none" xmlns="http://www.w3.org/2000/svg">
<rect width="128" height="128" fill="none"/>
<path d="M102.298 28.8271C96.8389 29.9697 94.1094 31.2393 94.1094 32.6357V68.8809C94.1094 76.0326 92.7764 82.1475 90.1104 87.2256C87.4443 92.2614 83.805 96.1335 79.1924 98.8418C74.6221 101.508 69.417 102.841 63.5771 102.841C58.0335 102.841 52.9131 101.804 48.2158 99.7305C43.5186 97.6569 39.7311 94.4831 36.8535 90.209C34.0182 85.8926 32.6006 80.4124 32.6006 73.7686V32.6357C32.6006 32.1279 31.9658 31.5143 30.6963 30.7949C29.4268 30.0332 27.332 29.3773 24.4121 28.8271V23.749H57.7373V28.8271C52.3206 29.9697 49.6123 31.2393 49.6123 32.6357V69.4521C49.6123 77.3232 50.903 83.2689 53.4844 87.2891C56.1081 91.3092 60.8688 93.3193 67.7666 93.3193C71.6175 93.3193 74.6009 92.2402 76.7168 90.082C78.875 87.8815 80.3984 85.0251 81.2871 81.5127C82.1758 77.958 82.6201 74.1706 82.6201 70.1504V32.6357C82.6201 32.1279 81.9854 31.5143 80.7158 30.7949C79.4463 30.0332 77.3516 29.3773 74.4316 28.8271V23.749H102.298V28.8271Z" fill="#F2921D"/>
</svg>
