<svg xmlns="http://www.w3.org/2000/svg" version="1.1" xmlns:xlink="http://www.w3.org/1999/xlink" xmlns:svgjs="http://svgjs.dev/svgjs" viewBox="0 0 800 800"><g fill="none" stroke-width="3" stroke="hsl(335, 77%, 50%)" stroke-linecap="round"><line x1="60" y1="400" x2="740" y2="400" transform="rotate(0, 400, 400)" opacity="0.30"></line><line x1="465.5" y1="400" x2="334.5" y2="400" transform="rotate(4, 400, 400)" opacity="0.33"></line><line x1="636.5" y1="400" x2="163.5" y2="400" transform="rotate(8, 400, 400)" opacity="0.80"></line><line x1="535.5" y1="400" x2="264.5" y2="400" transform="rotate(12, 400, 400)" opacity="0.43"></line><line x1="73" y1="400" x2="727" y2="400" transform="rotate(16, 400, 400)" opacity="0.53"></line><line x1="186.5" y1="400" x2="613.5" y2="400" transform="rotate(20, 400, 400)" opacity="0.57"></line><line x1="46.5" y1="400" x2="753.5" y2="400" transform="rotate(24, 400, 400)" opacity="0.88"></line><line x1="98" y1="400" x2="702" y2="400" transform="rotate(28, 400, 400)" opacity="0.29"></line><line x1="451" y1="400" x2="349" y2="400" transform="rotate(32, 400, 400)" opacity="0.89"></line><line x1="598.5" y1="400" x2="201.5" y2="400" transform="rotate(36, 400, 400)" opacity="0.29"></line><line x1="361.5" y1="400" x2="438.5" y2="400" transform="rotate(40, 400, 400)" opacity="0.55"></line><line x1="711.5" y1="400" x2="88.5" y2="400" transform="rotate(44, 400, 400)" opacity="0.54"></line><line x1="210.5" y1="400" x2="589.5" y2="400" transform="rotate(48, 400, 400)" opacity="0.40"></line><line x1="539" y1="400" x2="261" y2="400" transform="rotate(52, 400, 400)" opacity="0.77"></line><line x1="424" y1="400" x2="376" y2="400" transform="rotate(56, 400, 400)" opacity="0.17"></line><line x1="244.5" y1="400" x2="555.5" y2="400" transform="rotate(60, 400, 400)" opacity="0.47"></line><line x1="683" y1="400" x2="117" y2="400" transform="rotate(64, 400, 400)" opacity="0.17"></line><line x1="435.5" y1="400" x2="364.5" y2="400" transform="rotate(68, 400, 400)" opacity="0.50"></line><line x1="290.5" y1="400" x2="509.5" y2="400" transform="rotate(72, 400, 400)" opacity="0.46"></line><line x1="344.5" y1="400" x2="455.5" y2="400" transform="rotate(76, 400, 400)" opacity="0.96"></line><line x1="310" y1="400" x2="490" y2="400" transform="rotate(80, 400, 400)" opacity="0.22"></line><line x1="722" y1="400" x2="78" y2="400" transform="rotate(84, 400, 400)" opacity="0.91"></line><line x1="65.5" y1="400" x2="734.5" y2="400" transform="rotate(88, 400, 400)" opacity="0.25"></line><line x1="36.5" y1="400" x2="763.5" y2="400" transform="rotate(92, 400, 400)" opacity="0.10"></line><line x1="665" y1="400" x2="135" y2="400" transform="rotate(96, 400, 400)" opacity="0.28"></line><line x1="364.5" y1="400" x2="435.5" y2="400" transform="rotate(100, 400, 400)" opacity="0.69"></line><line x1="642.5" y1="400" x2="157.5" y2="400" transform="rotate(104, 400, 400)" opacity="0.39"></line><line x1="422.5" y1="400" x2="377.5" y2="400" transform="rotate(108, 400, 400)" opacity="0.16"></line><line x1="481.5" y1="400" x2="318.5" y2="400" transform="rotate(112, 400, 400)" opacity="0.67"></line><line x1="544" y1="400" x2="256" y2="400" transform="rotate(116, 400, 400)" opacity="0.20"></line><line x1="569.5" y1="400" x2="230.5" y2="400" transform="rotate(120, 400, 400)" opacity="0.44"></line><line x1="60.5" y1="400" x2="739.5" y2="400" transform="rotate(124, 400, 400)" opacity="0.81"></line><line x1="262.5" y1="400" x2="537.5" y2="400" transform="rotate(128, 400, 400)" opacity="0.89"></line><line x1="364.5" y1="400" x2="435.5" y2="400" transform="rotate(132, 400, 400)" opacity="0.58"></line><line x1="478" y1="400" x2="322" y2="400" transform="rotate(136, 400, 400)" opacity="0.44"></line><line x1="373" y1="400" x2="427" y2="400" transform="rotate(140, 400, 400)" opacity="0.84"></line><line x1="241.5" y1="400" x2="558.5" y2="400" transform="rotate(144, 400, 400)" opacity="0.34"></line><line x1="461" y1="400" x2="339" y2="400" transform="rotate(148, 400, 400)" opacity="0.29"></line><line x1="493" y1="400" x2="307" y2="400" transform="rotate(152, 400, 400)" opacity="0.22"></line><line x1="712" y1="400" x2="88" y2="400" transform="rotate(156, 400, 400)" opacity="0.56"></line><line x1="77" y1="400" x2="723" y2="400" transform="rotate(160, 400, 400)" opacity="0.75"></line><line x1="211.5" y1="400" x2="588.5" y2="400" transform="rotate(164, 400, 400)" opacity="0.89"></line><line x1="84.5" y1="400" x2="715.5" y2="400" transform="rotate(168, 400, 400)" opacity="0.33"></line><line x1="149.5" y1="400" x2="650.5" y2="400" transform="rotate(172, 400, 400)" opacity="1.00"></line><line x1="616.5" y1="400" x2="183.5" y2="400" transform="rotate(176, 400, 400)" opacity="0.17"></line><line x1="683.5" y1="400" x2="116.5" y2="400" transform="rotate(180, 400, 400)" opacity="0.89"></line><line x1="59.5" y1="400" x2="740.5" y2="400" transform="rotate(184, 400, 400)" opacity="0.27"></line><line x1="168" y1="400" x2="632" y2="400" transform="rotate(188, 400, 400)" opacity="0.88"></line><line x1="408" y1="400" x2="392" y2="400" transform="rotate(192, 400, 400)" opacity="0.31"></line><line x1="582.5" y1="400" x2="217.5" y2="400" transform="rotate(196, 400, 400)" opacity="0.64"></line><line x1="157" y1="400" x2="643" y2="400" transform="rotate(200, 400, 400)" opacity="0.53"></line><line x1="144.5" y1="400" x2="655.5" y2="400" transform="rotate(204, 400, 400)" opacity="0.62"></line><line x1="678.5" y1="400" x2="121.5" y2="400" transform="rotate(208, 400, 400)" opacity="0.84"></line><line x1="411" y1="400" x2="389" y2="400" transform="rotate(212, 400, 400)" opacity="0.12"></line><line x1="642" y1="400" x2="158" y2="400" transform="rotate(216, 400, 400)" opacity="0.50"></line><line x1="506" y1="400" x2="294" y2="400" transform="rotate(220, 400, 400)" opacity="0.48"></line><line x1="293.5" y1="400" x2="506.5" y2="400" transform="rotate(224, 400, 400)" opacity="0.82"></line><line x1="537" y1="400" x2="263" y2="400" transform="rotate(228, 400, 400)" opacity="0.79"></line><line x1="690" y1="400" x2="110" y2="400" transform="rotate(232, 400, 400)" opacity="0.97"></line><line x1="697" y1="400" x2="103" y2="400" transform="rotate(236, 400, 400)" opacity="0.51"></line><line x1="707.5" y1="400" x2="92.5" y2="400" transform="rotate(240, 400, 400)" opacity="0.99"></line><line x1="340" y1="400" x2="460" y2="400" transform="rotate(244, 400, 400)" opacity="0.22"></line><line x1="496" y1="400" x2="304" y2="400" transform="rotate(248, 400, 400)" opacity="0.39"></line><line x1="552.5" y1="400" x2="247.5" y2="400" transform="rotate(252, 400, 400)" opacity="0.19"></line><line x1="353.5" y1="400" x2="446.5" y2="400" transform="rotate(256, 400, 400)" opacity="0.45"></line><line x1="294.5" y1="400" x2="505.5" y2="400" transform="rotate(260, 400, 400)" opacity="0.15"></line><line x1="300.5" y1="400" x2="499.5" y2="400" transform="rotate(264, 400, 400)" opacity="0.64"></line><line x1="636" y1="400" x2="164" y2="400" transform="rotate(268, 400, 400)" opacity="0.68"></line><line x1="91.5" y1="400" x2="708.5" y2="400" transform="rotate(272, 400, 400)" opacity="0.26"></line><line x1="167.5" y1="400" x2="632.5" y2="400" transform="rotate(276, 400, 400)" opacity="0.32"></line><line x1="69.5" y1="400" x2="730.5" y2="400" transform="rotate(280, 400, 400)" opacity="0.74"></line><line x1="654" y1="400" x2="146" y2="400" transform="rotate(284, 400, 400)" opacity="0.55"></line><line x1="561" y1="400" x2="239" y2="400" transform="rotate(288, 400, 400)" opacity="0.54"></line><line x1="713" y1="400" x2="87" y2="400" transform="rotate(292, 400, 400)" opacity="0.78"></line><line x1="401" y1="400" x2="399" y2="400" transform="rotate(296, 400, 400)" opacity="0.45"></line><line x1="669" y1="400" x2="131" y2="400" transform="rotate(300, 400, 400)" opacity="0.72"></line><line x1="320" y1="400" x2="480" y2="400" transform="rotate(304, 400, 400)" opacity="0.42"></line><line x1="221.5" y1="400" x2="578.5" y2="400" transform="rotate(308, 400, 400)" opacity="0.32"></line><line x1="190" y1="400" x2="610" y2="400" transform="rotate(312, 400, 400)" opacity="0.69"></line><line x1="241.5" y1="400" x2="558.5" y2="400" transform="rotate(316, 400, 400)" opacity="0.79"></line><line x1="680.5" y1="400" x2="119.5" y2="400" transform="rotate(320, 400, 400)" opacity="0.40"></line><line x1="194.5" y1="400" x2="605.5" y2="400" transform="rotate(324, 400, 400)" opacity="0.52"></line><line x1="516.5" y1="400" x2="283.5" y2="400" transform="rotate(328, 400, 400)" opacity="0.68"></line><line x1="303" y1="400" x2="497" y2="400" transform="rotate(332, 400, 400)" opacity="0.94"></line><line x1="39.5" y1="400" x2="760.5" y2="400" transform="rotate(336, 400, 400)" opacity="0.97"></line><line x1="393.5" y1="400" x2="406.5" y2="400" transform="rotate(340, 400, 400)" opacity="0.95"></line><line x1="472.5" y1="400" x2="327.5" y2="400" transform="rotate(344, 400, 400)" opacity="0.24"></line><line x1="556" y1="400" x2="244" y2="400" transform="rotate(348, 400, 400)" opacity="0.58"></line></g></svg>