<svg width="969" height="83" viewBox="0 0 969 83" fill="none" xmlns="http://www.w3.org/2000/svg">
<path d="M78.2979 8.82715C72.8389 9.96973 70.1094 11.2393 70.1094 12.6357V48.8809C70.1094 56.0326 68.7764 62.1475 66.1104 67.2256C63.4443 72.2614 59.805 76.1335 55.1924 78.8418C50.6221 81.5078 45.417 82.8408 39.5771 82.8408C34.0335 82.8408 28.9131 81.804 24.2158 79.7305C19.5186 77.6569 15.7311 74.4831 12.8535 70.209C10.0182 65.8926 8.60059 60.4124 8.60059 53.7686V12.6357C8.60059 12.1279 7.96582 11.5143 6.69629 10.7949C5.42676 10.0332 3.33203 9.37728 0.412109 8.82715V3.74902H33.7373V8.82715C28.3206 9.96973 25.6123 11.2393 25.6123 12.6357V49.4521C25.6123 57.3232 26.903 63.2689 29.4844 67.2891C32.1081 71.3092 36.8688 73.3193 43.7666 73.3193C47.6175 73.3193 50.6009 72.2402 52.7168 70.082C54.875 67.8815 56.3984 65.0251 57.2871 61.5127C58.1758 57.958 58.6201 54.1706 58.6201 50.1504V12.6357C58.6201 12.1279 57.9854 11.5143 56.7158 10.7949C55.4463 10.0332 53.3516 9.37728 50.4316 8.82715V3.74902H78.2979V8.82715Z" fill="black"/>
<path d="M171.25 8.82715C168.33 9.25033 166.236 9.84277 164.966 10.6045C163.697 11.3662 163.062 12.0433 163.062 12.6357V79.0322L153.35 76.6201V12.6357C153.35 12.1279 152.8 11.4932 151.7 10.7314C150.642 9.92741 148.483 9.29264 145.225 8.82715V3.74902H171.25V8.82715ZM163.062 82.8408C158.619 82.5023 155 81.6348 152.207 80.2383C149.457 78.7995 147.447 77.1914 146.177 75.4141L105.044 17.8408C103.394 15.471 101.511 13.4609 99.3949 11.8105C97.279 10.1602 95.1631 9.16569 93.0473 8.82715V3.74902H111.392C112.577 3.74902 113.466 4.02409 114.058 4.57422C114.65 5.08203 115.687 6.39388 117.168 8.50977L154.683 61.1953C155.106 61.7878 155.762 62.6764 156.651 63.8613C157.582 65.0039 158.534 66.1888 159.507 67.416C160.481 68.6432 161.306 69.68 161.983 70.5264C162.702 71.3727 163.062 71.7959 163.062 71.7959V82.8408ZM93.0473 81V75.9219C96.0518 75.541 98.1677 74.9697 99.3949 74.208C100.622 73.404 101.236 72.7269 101.236 72.1768V10.0967L110.948 6.16113V72.1768C110.948 72.6423 111.519 73.277 112.662 74.0811C113.846 74.8428 116.005 75.4564 119.136 75.9219V81H93.0473Z" fill="black"/>
<path d="M263.06 8.82715C257.601 9.96973 254.872 11.2393 254.872 12.6357V48.8809C254.872 56.0326 253.539 62.1475 250.873 67.2256C248.207 72.2614 244.568 76.1335 239.955 78.8418C235.385 81.5078 230.179 82.8408 224.34 82.8408C218.796 82.8408 213.676 81.804 208.978 79.7305C204.281 77.6569 200.494 74.4831 197.616 70.209C194.781 65.8926 193.363 60.4124 193.363 53.7686V12.6357C193.363 12.1279 192.728 11.5143 191.459 10.7949C190.189 10.0332 188.095 9.37728 185.175 8.82715V3.74902H218.5V8.82715C213.083 9.96973 210.375 11.2393 210.375 12.6357V49.4521C210.375 57.3232 211.665 63.2689 214.247 67.2891C216.871 71.3092 221.631 73.3193 228.529 73.3193C232.38 73.3193 235.363 72.2402 237.479 70.082C239.637 67.8815 241.161 65.0251 242.05 61.5127C242.938 57.958 243.383 54.1706 243.383 50.1504V12.6357C243.383 12.1279 242.748 11.5143 241.478 10.7949C240.209 10.0332 238.114 9.37728 235.194 8.82715V3.74902H263.06V8.82715Z" fill="black"/>
<path d="M344.778 81V75.9219C347.528 75.3294 349.686 74.6947 351.252 74.0176C352.818 73.3405 353.601 72.7269 353.601 72.1768L352.966 12.5088L368.454 9.01758L369.026 72.1768C369.026 72.6423 369.766 73.2347 371.247 73.9541C372.728 74.6735 374.929 75.3294 377.849 75.9219V81H344.778ZM376.008 8.82715C374.188 8.82715 371.819 9.29264 368.899 10.2236C366.021 11.1546 363.292 12.4453 360.71 14.0957C358.129 15.7038 356.373 17.5658 355.442 19.6816L327.702 81H327.448C326.856 77.5723 326.264 74.8428 325.671 72.8115C325.079 70.7803 324.655 69.1722 324.402 67.9873C324.19 66.8024 324.275 65.7868 324.655 64.9404L349.983 8.89062C351.041 6.52083 351.845 5.08203 352.395 4.57422C352.987 4.02409 353.664 3.74902 354.426 3.74902H376.008V8.82715ZM330.114 64.8135C330.707 66.083 330.665 67.818 329.987 70.0186C329.31 72.1768 328.464 75.8372 327.448 81H321.101L293.425 17.7773C292.367 15.3229 290.971 13.4609 289.236 12.1914C287.543 10.8796 285.787 9.99089 283.967 9.52539C282.147 9.0599 280.497 8.82715 279.016 8.82715V3.74902H301.233C302.079 3.74902 302.798 4.04525 303.391 4.6377C303.983 5.23014 304.766 6.64779 305.739 8.89062L330.114 64.8135ZM278.445 81V75.9219C281.195 75.3294 283.248 74.6947 284.602 74.0176C285.956 73.3405 286.633 72.7269 286.633 72.1768L287.204 10.0967L296.662 8.57324L296.028 72.1768C296.028 72.6423 296.662 73.2347 297.932 73.9541C299.201 74.6735 301.296 75.3294 304.216 75.9219V81H278.445Z" fill="black"/>
<path d="M504.721 5.90723C504.678 7.26139 504.509 9.18685 504.213 11.6836C503.959 14.138 503.642 16.5501 503.261 18.9199C502.922 21.2474 502.584 22.9401 502.245 23.998H497.104C496.934 20.2318 496.426 17.2484 495.58 15.0479C494.776 12.805 493.633 11.6836 492.152 11.6836H469.237L471.015 3.74902H502.118L504.721 5.90723ZM498.5 38.2803C497.865 39.3805 496.998 40.8405 495.897 42.6602C494.797 44.4375 493.803 45.6436 492.914 46.2783C491.687 45.0934 490.227 44.2471 488.534 43.7393C486.841 43.1891 484.302 42.9141 480.917 42.9141H468.349L469.745 35.9316H496.342L498.5 38.2803ZM508.72 61.1318C508.508 63.4593 508.233 66.0195 507.895 68.8125C507.598 71.6055 507.302 74.1445 507.006 76.4297C506.71 78.6725 506.435 80.196 506.181 81H447.211V75.9219C452.67 74.7793 455.399 73.5309 455.399 72.1768V12.6357C455.399 12.1279 454.765 11.5143 453.495 10.7949C452.226 10.0332 450.131 9.37728 447.211 8.82715V3.74902H481.171V8.82715C478.463 9.12337 476.326 9.46191 474.76 9.84277C473.194 10.2236 472.411 10.7103 472.411 11.3027V69.1299C472.411 69.8916 472.686 70.5687 473.236 71.1611C473.829 71.7536 474.993 72.2191 476.728 72.5576C478.505 72.8538 481.171 73.002 484.726 73.002H490.121C493.887 73.002 496.659 71.944 498.437 69.8281C500.214 67.6699 501.949 64.1999 503.642 59.418L508.72 61.1318Z" fill="black"/>
<path d="M594.88 8.82715C591.918 9.16569 589.591 9.6735 587.898 10.3506C586.247 11.0277 584.872 12.2337 583.772 13.9688L560.159 51.0391L555.588 41.708L572.917 13.9688C574.06 12.1068 574.335 10.8584 573.743 10.2236C573.15 9.58887 571.034 9.12337 567.395 8.82715V3.74902H594.88V8.82715ZM563.84 81V75.9219C567.353 75.541 569.553 74.9909 570.442 74.2715C571.373 73.5521 571.288 72.3883 570.188 70.7803L531.658 13.9688C530.388 12.1491 529.161 10.943 527.976 10.3506C526.791 9.75814 524.866 9.25033 522.2 8.82715V3.74902H556.794V8.82715C553.367 9.16569 551.124 9.6735 550.066 10.3506C549.05 10.9854 549.135 12.1914 550.32 13.9688L588.85 70.7803C590.035 72.5153 591.241 73.7214 592.468 74.3984C593.695 75.0755 595.473 75.5833 597.8 75.9219V81H563.84ZM543.464 70.7803C542.279 72.5576 541.941 73.806 542.449 74.5254C542.999 75.2025 545.136 75.668 548.86 75.9219V81H521.565V75.9219C526.855 75.541 530.536 73.8271 532.61 70.7803L556.413 34.916L560.349 45.5801L543.464 70.7803Z" fill="black"/>
<path d="M632.227 54.9111L626.705 71.7324C626.324 73.002 626.811 73.9329 628.165 74.5254C629.519 75.0755 631.846 75.541 635.147 75.9219V81H608.233V75.9219C610.984 75.4141 613.057 74.9062 614.454 74.3984C615.893 73.8483 616.803 72.9596 617.183 71.7324L637.94 7.62109C640.183 5.75911 642.722 4.23568 645.557 3.05078C648.435 1.82357 651.08 0.892578 653.492 0.257812L678.946 71.7324C679.369 72.875 680.046 73.7848 680.977 74.4619C681.951 75.0967 683.728 75.5833 686.309 75.9219V81H654.698V75.9219C657.83 75.7103 659.945 75.3083 661.046 74.7158C662.146 74.0811 662.463 73.0866 661.998 71.7324L656.031 54.9111H632.227ZM653.302 46.9766L643.526 19.4912L634.83 46.9766H653.302Z" fill="black"/>
<path d="M766.059 81V75.9219C768.809 75.3294 770.968 74.6947 772.533 74.0176C774.099 73.3405 774.882 72.7269 774.882 72.1768L774.247 12.5088L789.736 9.01758L790.307 72.1768C790.307 72.6423 791.047 73.2347 792.529 73.9541C794.01 74.6735 796.21 75.3294 799.13 75.9219V81H766.059ZM797.289 8.82715C795.47 8.82715 793.1 9.29264 790.18 10.2236C787.302 11.1546 784.573 12.4453 781.991 14.0957C779.41 15.7038 777.654 17.5658 776.723 19.6816L748.984 81H748.73C748.137 77.5723 747.545 74.8428 746.952 72.8115C746.36 70.7803 745.937 69.1722 745.683 67.9873C745.471 66.8024 745.556 65.7868 745.937 64.9404L771.264 8.89062C772.322 6.52083 773.126 5.08203 773.676 4.57422C774.268 4.02409 774.945 3.74902 775.707 3.74902H797.289V8.82715ZM751.396 64.8135C751.988 66.083 751.946 67.818 751.269 70.0186C750.592 72.1768 749.745 75.8372 748.73 81H742.382L714.706 17.7773C713.648 15.3229 712.252 13.4609 710.517 12.1914C708.824 10.8796 707.068 9.99089 705.248 9.52539C703.429 9.0599 701.778 8.82715 700.297 8.82715V3.74902H722.514C723.36 3.74902 724.08 4.04525 724.672 4.6377C725.265 5.23014 726.047 6.64779 727.021 8.89062L751.396 64.8135ZM699.726 81V75.9219C702.476 75.3294 704.529 74.6947 705.883 74.0176C707.237 73.3405 707.914 72.7269 707.914 72.1768L708.486 10.0967L717.944 8.57324L717.309 72.1768C717.309 72.6423 717.944 73.2347 719.213 73.9541C720.483 74.6735 722.577 75.3294 725.497 75.9219V81H699.726Z" fill="black"/>
<path d="M872.468 5.90723C872.426 7.26139 872.257 9.18685 871.961 11.6836C871.707 14.138 871.389 16.5501 871.008 18.9199C870.67 21.2474 870.331 22.9401 869.993 23.998H864.851C864.682 20.2318 864.174 17.2484 863.328 15.0479C862.524 12.805 861.381 11.6836 859.9 11.6836H836.985L838.762 3.74902H869.866L872.468 5.90723ZM866.248 38.2803C865.613 39.3805 864.745 40.8405 863.645 42.6602C862.545 44.4375 861.55 45.6436 860.662 46.2783C859.435 45.0934 857.975 44.2471 856.282 43.7393C854.589 43.1891 852.05 42.9141 848.665 42.9141H836.096L837.493 35.9316H864.089L866.248 38.2803ZM876.467 61.1318C876.256 63.4593 875.981 66.0195 875.642 68.8125C875.346 71.6055 875.05 74.1445 874.754 76.4297C874.457 78.6725 874.182 80.196 873.928 81H814.959V75.9219C820.418 74.7793 823.147 73.5309 823.147 72.1768V12.6357C823.147 12.1279 822.512 11.5143 821.243 10.7949C819.973 10.0332 817.879 9.37728 814.959 8.82715V3.74902H848.919V8.82715C846.21 9.12337 844.073 9.46191 842.507 9.84277C840.942 10.2236 840.159 10.7103 840.159 11.3027V69.1299C840.159 69.8916 840.434 70.5687 840.984 71.1611C841.576 71.7536 842.74 72.2191 844.475 72.5576C846.253 72.8538 848.919 73.002 852.473 73.002H857.869C861.635 73.002 864.407 71.944 866.184 69.8281C867.962 67.6699 869.697 64.1999 871.389 59.418L876.467 61.1318Z" fill="black"/>
<path d="M968.658 8.82715C965.738 9.25033 963.644 9.84277 962.374 10.6045C961.104 11.3662 960.47 12.0433 960.47 12.6357V79.0322L950.758 76.6201V12.6357C950.758 12.1279 950.208 11.4932 949.107 10.7314C948.049 9.92741 945.891 9.29264 942.633 8.82715V3.74902H968.658V8.82715ZM960.47 82.8408C956.026 82.5023 952.408 81.6348 949.615 80.2383C946.865 78.7995 944.854 77.1914 943.585 75.4141L902.452 17.8408C900.802 15.471 898.919 13.4609 896.803 11.8105C894.687 10.1602 892.571 9.16569 890.455 8.82715V3.74902H908.8C909.985 3.74902 910.873 4.02409 911.466 4.57422C912.058 5.08203 913.095 6.39388 914.576 8.50977L952.091 61.1953C952.514 61.7878 953.17 62.6764 954.059 63.8613C954.99 65.0039 955.942 66.1888 956.915 67.416C957.888 68.6432 958.714 69.68 959.391 70.5264C960.11 71.3727 960.47 71.7959 960.47 71.7959V82.8408ZM890.455 81V75.9219C893.46 75.541 895.576 74.9697 896.803 74.208C898.03 73.404 898.644 72.7269 898.644 72.1768V10.0967L908.355 6.16113V72.1768C908.355 72.6423 908.927 73.277 910.069 74.0811C911.254 74.8428 913.412 75.4564 916.544 75.9219V81H890.455Z" fill="black"/>
</svg>
